<svg xmlns="http://www.w3.org/2000/svg" width="900" height="900" viewBox="0 0 900 900">
  <defs>
    <filter id="shadow" x="-20%" y="-20%" width="140%" height="140%">
      <feDropShadow dx="0" dy="18" stdDeviation="18" flood-color="#000000" flood-opacity="0.16"/>
    </filter>
    <linearGradient id="card" x1="0%" y1="0%" x2="100%" y2="100%">
      <stop offset="0%" stop-color="#f8f2e7"/>
      <stop offset="100%" stop-color="#f1e8db"/>
    </linearGradient>
    <linearGradient id="box" x1="0%" y1="0%" x2="100%" y2="100%">
      <stop offset="0%" stop-color="#ffdf7f"/>
      <stop offset="100%" stop-color="#f0b94b"/>
    </linearGradient>
  </defs>
  <g filter="url(#shadow)">
    <rect x="116" y="118" width="668" height="640" rx="42" fill="url(#card)"/>
    <rect x="116" y="118" width="668" height="640" rx="42" fill="none" stroke="#2d2522" stroke-width="8"/>
  </g>
  <rect x="152" y="150" width="164" height="52" rx="4" fill="#f20519"/>
  <text x="234" y="185" text-anchor="middle" font-family="Arial, sans-serif" font-size="30" font-weight="700" fill="#ffffff">POP MART</text>
  <text x="152" y="238" font-family="Arial, 'Microsoft YaHei', sans-serif" font-size="28" fill="#6c6259">Zsiga 开学季 AR 情绪盲盒</text>
  <text x="152" y="334" font-family="Arial, 'Microsoft YaHei', sans-serif" font-size="88" font-weight="700" fill="#7f5537">点击开盒</text>
  <text x="152" y="420" font-family="Arial, 'Microsoft YaHei', sans-serif" font-size="88" font-weight="700" fill="#7f5537">解锁下一步</text>
  <circle cx="590" cy="474" r="132" fill="#fde188"/>
  <circle cx="590" cy="474" r="146" fill="none" stroke="#fde188" stroke-width="10" opacity="0.66"/>
  <circle cx="590" cy="474" r="158" fill="none" stroke="#fde188" stroke-width="4" opacity="0.45"/>
  <path d="M522 426 592 398 662 426 662 518 592 548 522 518Z" fill="url(#box)" stroke="#3a2d25" stroke-width="7" stroke-linejoin="round"/>
  <path d="M522 426 592 454 662 426" fill="none" stroke="#3a2d25" stroke-width="7" stroke-linejoin="round"/>
  <path d="M522 426 494 392 564 362 592 398Z" fill="#ffe8a6" stroke="#3a2d25" stroke-width="7" stroke-linejoin="round"/>
  <path d="M662 426 690 392 620 362 592 398Z" fill="#ffe8a6" stroke="#3a2d25" stroke-width="7" stroke-linejoin="round"/>
  <path d="M592 454 V548" stroke="#3a2d25" stroke-width="7" stroke-linecap="round"/>
  <rect x="152" y="678" width="592" height="48" rx="24" fill="#2d2522"/>
  <text x="448" y="710" text-anchor="middle" font-family="Arial, 'Microsoft YaHei', sans-serif" font-size="26" font-weight="700" fill="#ffffff">点一下，让盲盒真正打开</text>
</svg>
