<svg xmlns="http://www.w3.org/2000/svg" width="900" height="900" viewBox="0 0 900 900">
  <defs>
    <filter id="shadow" x="-20%" y="-20%" width="140%" height="140%">
      <feDropShadow dx="0" dy="16" stdDeviation="16" flood-color="#000000" flood-opacity="0.18"/>
    </filter>
  </defs>
  <g filter="url(#shadow)">
    <rect x="112" y="142" width="676" height="612" rx="42" fill="#faf6ef"/>
    <rect x="112" y="142" width="676" height="612" rx="42" fill="none" stroke="#2d2522" stroke-width="8"/>
  </g>
  <rect x="148" y="176" width="164" height="52" rx="4" fill="#f20519"/>
  <text x="230" y="211" text-anchor="middle" font-family="Arial, sans-serif" font-size="30" font-weight="700" fill="#ffffff">POP MART</text>
  <text x="450" y="304" text-anchor="middle" font-family="Arial, 'Microsoft YaHei', sans-serif" font-size="50" font-weight="700" fill="#2d2522">截图分享我的能量卡</text>

  <rect x="214" y="362" width="472" height="204" rx="24" fill="#ffffff" stroke="#d8cec2" stroke-width="4"/>
  <rect x="246" y="396" width="136" height="22" rx="11" fill="#ffe287"/>
  <rect x="246" y="442" width="286" height="16" rx="8" fill="#dfd7cb"/>
  <rect x="246" y="476" width="244" height="16" rx="8" fill="#dfd7cb"/>
  <rect x="246" y="510" width="320" height="16" rx="8" fill="#dfd7cb"/>
  <circle cx="610" cy="466" r="50" fill="#ffe287" stroke="#7f5537" stroke-width="5"/>
  <path d="M610 442 V490 M586 466 H634" stroke="#7f5537" stroke-width="8" stroke-linecap="round"/>

  <rect x="188" y="612" width="524" height="62" rx="31" fill="#f20519"/>
  <text x="450" y="654" text-anchor="middle" font-family="Arial, 'Microsoft YaHei', sans-serif" font-size="32" font-weight="700" fill="#ffffff">继续去泡泡抽盒</text>
  <text x="450" y="706" text-anchor="middle" font-family="Arial, 'Microsoft YaHei', sans-serif" font-size="24" fill="#6b6058">提交演示版先用截图传播，终版可接入真实小程序入口</text>
</svg>
