<svg xmlns="http://www.w3.org/2000/svg" width="900" height="900" viewBox="0 0 900 900">
  <defs>
    <filter id="shadow" x="-20%" y="-20%" width="140%" height="140%">
      <feDropShadow dx="0" dy="16" stdDeviation="16" flood-color="#000000" flood-opacity="0.18"/>
    </filter>
  </defs>
  <g filter="url(#shadow)">
    <rect x="104" y="128" width="692" height="612" rx="40" fill="#f7f4ef"/>
    <rect x="104" y="128" width="692" height="612" rx="40" fill="none" stroke="#2d2522" stroke-width="8"/>
  </g>
  <rect x="140" y="160" width="164" height="52" rx="4" fill="#f20519"/>
  <text x="222" y="195" text-anchor="middle" font-family="Arial, sans-serif" font-size="30" font-weight="700" fill="#ffffff">POP MART</text>
  <text x="140" y="256" font-family="Arial, 'Microsoft YaHei', sans-serif" font-size="54" font-weight="700" fill="#2d2522">刺刺态度卡</text>
  <text x="140" y="334" font-family="Arial, 'Microsoft YaHei', sans-serif" font-size="52" font-weight="700" fill="#54717b">给我点空间</text>
  <text x="140" y="398" font-family="Arial, 'Microsoft YaHei', sans-serif" font-size="52" font-weight="700" fill="#54717b">我先安静一下</text>
  <path d="M140 438 H760" stroke="#54717b" stroke-width="4" stroke-dasharray="14 14" opacity="0.38"/>

  <rect x="140" y="476" width="620" height="92" rx="26" fill="#e9f7ff" stroke="#6f9aac" stroke-width="4"/>
  <text x="450" y="530" text-anchor="middle" font-family="Arial, 'Microsoft YaHei', sans-serif" font-size="32" font-weight="700" fill="#21333a">不做气氛担当，也是在认真照顾自己</text>

  <rect x="172" y="602" width="178" height="50" rx="25" fill="#2d2522"/>
  <text x="261" y="635" text-anchor="middle" font-family="Arial, 'Microsoft YaHei', sans-serif" font-size="26" font-weight="700" fill="#ffffff">不秒回</text>
  <rect x="362" y="602" width="178" height="50" rx="25" fill="#8fd3f4"/>
  <text x="451" y="635" text-anchor="middle" font-family="Arial, 'Microsoft YaHei', sans-serif" font-size="26" font-weight="700" fill="#20343d">先喘口气</text>
  <rect x="552" y="602" width="178" height="50" rx="25" fill="#2d2522"/>
  <text x="641" y="635" text-anchor="middle" font-family="Arial, 'Microsoft YaHei', sans-serif" font-size="26" font-weight="700" fill="#ffffff">保留安静</text>

  <text x="450" y="698" text-anchor="middle" font-family="Arial, 'Microsoft YaHei', sans-serif" font-size="28" fill="#53656b">不必每一秒都回应世界</text>
</svg>
