<svg xmlns="http://www.w3.org/2000/svg" width="900" height="900" viewBox="0 0 900 900">
  <defs>
    <filter id="shadow" x="-20%" y="-20%" width="140%" height="140%">
      <feDropShadow dx="0" dy="18" stdDeviation="18" flood-color="#000000" flood-opacity="0.16"/>
    </filter>
    <linearGradient id="card" x1="0%" y1="0%" x2="100%" y2="100%">
      <stop offset="0%" stop-color="#f8f2e7"/>
      <stop offset="100%" stop-color="#f1e8db"/>
    </linearGradient>
  </defs>

  <g filter="url(#shadow)">
    <rect x="116" y="118" width="668" height="640" rx="42" fill="url(#card)"/>
    <rect x="116" y="118" width="668" height="640" rx="42" fill="none" stroke="#2d2522" stroke-width="8"/>
  </g>

  <rect x="152" y="150" width="164" height="52" rx="4" fill="#f20519"/>
  <text x="234" y="185" text-anchor="middle" font-family="Arial, sans-serif" font-size="30" font-weight="700" fill="#ffffff">POP MART</text>
  <text x="152" y="238" font-family="Arial, 'Microsoft YaHei', sans-serif" font-size="28" fill="#6c6259">随机开盒结果</text>
  <text x="152" y="322" font-family="Arial, 'Microsoft YaHei', sans-serif" font-size="72" font-weight="700" fill="#7f5537">Zsiga 刺刺款</text>
  <text x="152" y="388" font-family="Arial, 'Microsoft YaHei', sans-serif" font-size="40" font-weight="700" fill="#cf6276">先出场的是：边界刺刺仔</text>

  <ellipse cx="584" cy="474" rx="144" ry="128" fill="#ffe8ee"/>
  <ellipse cx="584" cy="474" rx="154" ry="138" fill="none" stroke="#ffd5df" stroke-width="8" opacity="0.66"/>

  <ellipse cx="584" cy="472" rx="100" ry="114" fill="#fffaf7" stroke="#2d2522" stroke-width="7"/>
  <path d="M520 374 546 330 566 382" fill="#ffb1c1" stroke="#2d2522" stroke-width="7" stroke-linejoin="round"/>
  <path d="M648 374 622 330 602 382" fill="#ffb1c1" stroke="#2d2522" stroke-width="7" stroke-linejoin="round"/>
  <path d="M488 432 458 420 486 462" fill="#ffb1c1" stroke="#2d2522" stroke-width="6" stroke-linejoin="round"/>
  <path d="M680 432 710 420 682 462" fill="#ffb1c1" stroke="#2d2522" stroke-width="6" stroke-linejoin="round"/>
  <circle cx="546" cy="434" r="16" fill="#2d2522"/>
  <circle cx="622" cy="434" r="16" fill="#2d2522"/>
  <circle cx="552" cy="428" r="4" fill="#ffffff"/>
  <circle cx="628" cy="428" r="4" fill="#ffffff"/>
  <ellipse cx="584" cy="490" rx="18" ry="12" fill="#f1b8a2"/>
  <path d="M556 520 Q584 540 612 520" fill="none" stroke="#2d2522" stroke-width="6" stroke-linecap="round"/>

  <rect x="152" y="472" width="238" height="124" rx="28" fill="#fff7dc" stroke="#cfad6a" stroke-width="4"/>
  <text x="178" y="520" font-family="Arial, 'Microsoft YaHei', sans-serif" font-size="30" font-weight="700" fill="#2d2522">角色气质</text>
  <text x="178" y="562" font-family="Arial, 'Microsoft YaHei', sans-serif" font-size="24" fill="#5a4e45">有边界 / 敢表达 / 不委屈</text>

  <rect x="152" y="678" width="592" height="48" rx="24" fill="#2d2522"/>
  <text x="448" y="710" text-anchor="middle" font-family="Arial, 'Microsoft YaHei', sans-serif" font-size="26" font-weight="700" fill="#ffffff">你开出了 Zsiga 刺刺款角色卡</text>
</svg>
